<svg version="1.1" xmlns="http://www.w3.org/2000/svg" viewBox="0 0 1201.089056352786 1201.0894477918787" width="1201.089056352786" height="1201.0894477918787">
  <!-- svg-source:excalidraw -->
  
  <defs>
    <style class="style-fonts">
      @font-face {
        font-family: "Virgil";
        src: url("https://excalidraw.com/Virgil.woff2");
      }
      @font-face {
        font-family: "Cascadia";
        src: url("https://excalidraw.com/Cascadia.woff2");
      }
      @font-face {
        font-family: "Assistant";
        src: url("https://excalidraw.com/Assistant-Regular.woff2");
      }
    </style>
    
  </defs>
  <rect x="0" y="0" width="1201.089056352786" height="1201.0894477918787" fill="#ffffff"></rect><g stroke-linecap="round" transform="translate(10 305.2575679755189) rotate(0 49 49)"><path d="M0 0 C21.85 0, 43.69 0, 98 0 M0 0 C23.97 0, 47.93 0, 98 0 M98 0 C98 29.77, 98 59.53, 98 98 M98 0 C98 31.85, 98 63.7, 98 98 M98 98 C71.8 98, 45.6 98, 0 98 M98 98 C76.15 98, 54.3 98, 0 98 M0 98 C0 71.43, 0 44.85, 0 0 M0 98 C0 66.29, 0 34.58, 0 0" stroke="#1e1e1e" stroke-width="2" fill="none"></path></g><g stroke-linecap="round" transform="translate(206.75705655315483 305.7434548692091) rotate(0 49 49)"><path d="M0 0 C37.57 0, 75.15 0, 98 0 M0 0 C27.95 0, 55.91 0, 98 0 M98 0 C98 21.35, 98 42.69, 98 98 M98 0 C98 24.48, 98 48.95, 98 98 M98 98 C63.86 98, 29.71 98, 0 98 M98 98 C62.82 98, 27.64 98, 0 98 M0 98 C0 65.85, 0 33.7, 0 0 M0 98 C0 76.02, 0 54.03, 0 0" stroke="#1e1e1e" stroke-width="2" fill="none"></path></g><g stroke-linecap="round" transform="translate(206.75705655315483 501.743454869209) rotate(0 49 49)"><path d="M0 0 C36.03 0, 72.05 0, 98 0 M0 0 C39.01 0, 78.03 0, 98 0 M98 0 C98 20.45, 98 40.9, 98 98 M98 0 C98 23.81, 98 47.63, 98 98 M98 98 C62.14 98, 26.28 98, 0 98 M98 98 C64.22 98, 30.43 98, 0 98 M0 98 C0 62.5, 0 26.99, 0 0 M0 98 C0 66.04, 0 34.08, 0 0" stroke="#1e1e1e" stroke-width="2" fill="none"></path></g><g stroke-linecap="round" transform="translate(10.757056553154825 501.743454869209) rotate(0 49 49)"><path d="M0 0 C28.46 0, 56.92 0, 98 0 M0 0 C30.02 0, 60.04 0, 98 0 M98 0 C98 35.23, 98 70.45, 98 98 M98 0 C98 35.19, 98 70.37, 98 98 M98 98 C62.08 98, 26.16 98, 0 98 M98 98 C68.31 98, 38.62 98, 0 98 M0 98 C0 63.82, 0 29.65, 0 0 M0 98 C0 61.89, 0 25.78, 0 0" stroke="#1e1e1e" stroke-width="2" fill="none"></path></g><g stroke-linecap="round"><g transform="translate(10.402648673888052 403.0113737082032) rotate(0 0.16783069501252612 50.01354711373199)"><path d="M0 0 C0.1 31, 0.21 62, 0.34 100.03 M0 0 C0.11 32.88, 0.22 65.76, 0.34 100.03" stroke="#1e1e1e" stroke-width="2" fill="none"></path></g></g><mask></mask><g stroke-linecap="round"><g transform="translate(107.76469819098429 305.1405447881601) rotate(0 50.332336495563254 0.3247247515842844)"><path d="M0 0 C23.13 0.15, 46.26 0.3, 100.66 0.65 M0 0 C37.75 0.24, 75.49 0.49, 100.66 0.65" stroke="#1e1e1e" stroke-width="2" fill="none"></path></g></g><mask></mask><g stroke-linecap="round"><g transform="translate(305.197347154226 401.90852076027534) rotate(0 -0.6494495031686256 50.65706124714757)"><path d="M0 0 C-0.5 38.93, -1 77.86, -1.3 101.31 M0 0 C-0.43 33.38, -0.86 66.76, -1.3 101.31" stroke="#1e1e1e" stroke-width="2" fill="none"></path></g></g><mask></mask><g stroke-linecap="round"><g transform="translate(105.81634968147864 599.9906192266857) rotate(0 63.646051310518715 0)"><path d="M0 0 C37.91 0, 75.82 0, 127.29 0 M0 0 C38.83 0, 77.66 0, 127.29 0" stroke="#1e1e1e" stroke-width="2" fill="none"></path></g></g><mask></mask><g stroke-linecap="round"><g transform="translate(108.41414769415269 403.2074197666125) rotate(0 50.007611743979055 50.007611743979)"><path d="M0 0 C38.19 38.19, 76.37 76.37, 100.02 100.02 M0 0 C33.06 33.06, 66.11 66.11, 100.02 100.02" stroke="#1e1e1e" stroke-width="2" fill="none"></path></g></g><mask></mask><g stroke-linecap="round"><g transform="translate(109.06359719732131 502.57319375140196) rotate(0 49.35816224081043 -49.033437489226145)"><path d="M0 0 C26.04 -25.87, 52.09 -51.74, 98.72 -98.07 M0 0 C20.51 -20.38, 41.02 -40.75, 98.72 -98.07" stroke="#1e1e1e" stroke-width="2" fill="none"></path></g></g><mask></mask><g stroke-linecap="round" transform="translate(304.985014448785 304.62058788377203) rotate(0 49 49)"><path d="M0 0 C20.31 0, 40.63 0, 98 0 M0 0 C38.82 0, 77.64 0, 98 0 M98 0 C98 38.54, 98 77.07, 98 98 M98 0 C98 21.28, 98 42.57, 98 98 M98 98 C64.58 98, 31.15 98, 0 98 M98 98 C75.28 98, 52.56 98, 0 98 M0 98 C0 63.57, 0 29.14, 0 0 M0 98 C0 64.14, 0 30.28, 0 0" stroke="#1e1e1e" stroke-width="2" fill="none"></path></g><g stroke-linecap="round" transform="translate(501.7420710019401 305.10647477746215) rotate(0 49 49)"><path d="M0 0 C23.22 0, 46.45 0, 98 0 M0 0 C33.04 0, 66.07 0, 98 0 M98 0 C98 24.44, 98 48.88, 98 98 M98 0 C98 34.09, 98 68.19, 98 98 M98 98 C62.27 98, 26.54 98, 0 98 M98 98 C60.8 98, 23.6 98, 0 98 M0 98 C0 70.61, 0 43.22, 0 0 M0 98 C0 63.63, 0 29.27, 0 0" stroke="#1e1e1e" stroke-width="2" fill="none"></path></g><g stroke-linecap="round" transform="translate(501.7420710019401 501.10647477746215) rotate(0 49 49)"><path d="M0 0 C27.04 0, 54.08 0, 98 0 M0 0 C21.97 0, 43.94 0, 98 0 M98 0 C98 29.93, 98 59.86, 98 98 M98 0 C98 21.84, 98 43.68, 98 98 M98 98 C63.13 98, 28.26 98, 0 98 M98 98 C67.8 98, 37.6 98, 0 98 M0 98 C0 74.57, 0 51.14, 0 0 M0 98 C0 59.48, 0 20.97, 0 0" stroke="#1e1e1e" stroke-width="2" fill="none"></path></g><g stroke-linecap="round" transform="translate(305.7420710019401 501.10647477746215) rotate(0 49 49)"><path d="M0 0 C25.18 0, 50.36 0, 98 0 M0 0 C38.96 0, 77.91 0, 98 0 M98 0 C98 20.19, 98 40.39, 98 98 M98 0 C98 22.5, 98 45, 98 98 M98 98 C78.14 98, 58.28 98, 0 98 M98 98 C76.31 98, 54.62 98, 0 98 M0 98 C0 69.35, 0 40.71, 0 0 M0 98 C0 72.4, 0 46.79, 0 0" stroke="#1e1e1e" stroke-width="2" fill="none"></path></g><g stroke-linecap="round"><g transform="translate(305.3876631226731 402.37439361645636) rotate(0 0.16783069501252612 50.01354711373199)"><path d="M0 0 C0.12 34.95, 0.23 69.89, 0.34 100.03 M0 0 C0.08 22.63, 0.15 45.26, 0.34 100.03" stroke="#1e1e1e" stroke-width="2" fill="none"></path></g></g><mask></mask><g stroke-linecap="round"><g transform="translate(402.7497126397693 304.50356469641326) rotate(0 50.332336495563254 0.3247247515842844)"><path d="M0 0 C39.3 0.25, 78.6 0.51, 100.66 0.65 M0 0 C37.99 0.25, 75.98 0.49, 100.66 0.65" stroke="#1e1e1e" stroke-width="2" fill="none"></path></g></g><mask></mask><g stroke-linecap="round"><g transform="translate(600.182361603011 401.2715406685285) rotate(0 -0.6494495031686256 50.65706124714757)"><path d="M0 0 C-0.41 32.04, -0.82 64.08, -1.3 101.31 M0 0 C-0.37 28.85, -0.74 57.69, -1.3 101.31" stroke="#1e1e1e" stroke-width="2" fill="none"></path></g></g><mask></mask><g stroke-linecap="round"><g transform="translate(400.80136413026366 599.3536391349388) rotate(0 63.646051310518715 0)"><path d="M0 0 C50.05 0, 100.11 0, 127.29 0 M0 0 C27.65 0, 55.29 0, 127.29 0" stroke="#1e1e1e" stroke-width="2" fill="none"></path></g></g><mask></mask><g stroke-linecap="round"><g transform="translate(403.3991621429377 402.5704396748656) rotate(0 50.007611743979055 50.007611743979)"><path d="M0 0 C24.94 24.94, 49.88 49.88, 100.02 100.02 M0 0 C34.8 34.8, 69.59 69.59, 100.02 100.02" stroke="#1e1e1e" stroke-width="2" fill="none"></path></g></g><mask></mask><g stroke-linecap="round"><g transform="translate(404.04861164610656 501.9362136596551) rotate(0 49.35816224081043 -49.033437489226145)"><path d="M0 0 C30.15 -29.95, 60.29 -59.9, 98.72 -98.07 M0 0 C22 -21.85, 44 -43.71, 98.72 -98.07" stroke="#1e1e1e" stroke-width="2" fill="none"></path></g></g><mask></mask><g stroke-linecap="round" transform="translate(11.312310089186894 10.335626483493058) rotate(0 49 49)"><path d="M0 0 C21.56 0, 43.12 0, 98 0 M0 0 C33.94 0, 67.87 0, 98 0 M98 0 C98 22.28, 98 44.56, 98 98 M98 0 C98 30.6, 98 61.2, 98 98 M98 98 C75.55 98, 53.1 98, 0 98 M98 98 C72.99 98, 47.98 98, 0 98 M0 98 C0 72.11, 0 46.22, 0 0 M0 98 C0 70.9, 0 43.8, 0 0" stroke="#1e1e1e" stroke-width="2" fill="none"></path></g><g stroke-linecap="round" transform="translate(208.06936664234195 10.821513377183237) rotate(0 49 49)"><path d="M0 0 C32.98 0, 65.97 0, 98 0 M0 0 C32.23 0, 64.46 0, 98 0 M98 0 C98 29.5, 98 59.01, 98 98 M98 0 C98 28.29, 98 56.59, 98 98 M98 98 C63.86 98, 29.71 98, 0 98 M98 98 C59.19 98, 20.39 98, 0 98 M0 98 C0 70.31, 0 42.61, 0 0 M0 98 C0 68.95, 0 39.9, 0 0" stroke="#1e1e1e" stroke-width="2" fill="none"></path></g><g stroke-linecap="round" transform="translate(208.06936664234195 206.82151337718318) rotate(0 49 49)"><path d="M0 0 C20.37 0, 40.74 0, 98 0 M0 0 C28.93 0, 57.85 0, 98 0 M98 0 C98 24.43, 98 48.86, 98 98 M98 0 C98 19.82, 98 39.64, 98 98 M98 98 C66.61 98, 35.21 98, 0 98 M98 98 C70.12 98, 42.24 98, 0 98 M0 98 C0 67.73, 0 37.46, 0 0 M0 98 C0 67.31, 0 36.62, 0 0" stroke="#1e1e1e" stroke-width="2" fill="none"></path></g><g stroke-linecap="round" transform="translate(12.069366642341947 206.82151337718318) rotate(0 49 49)"><path d="M0 0 C29.26 0, 58.52 0, 98 0 M0 0 C38.62 0, 77.24 0, 98 0 M98 0 C98 31.1, 98 62.2, 98 98 M98 0 C98 27.49, 98 54.98, 98 98 M98 98 C68.39 98, 38.77 98, 0 98 M98 98 C59.21 98, 20.42 98, 0 98 M0 98 C0 64.34, 0 30.68, 0 0 M0 98 C0 76.63, 0 55.26, 0 0" stroke="#1e1e1e" stroke-width="2" fill="none"></path></g><g stroke-linecap="round"><g transform="translate(11.714958763075174 108.08943221617739) rotate(0 0.16783069501252612 50.013547113731974)"><path d="M0 0 C0.1 29.12, 0.2 58.24, 0.34 100.03 M0 0 C0.11 32.24, 0.22 64.49, 0.34 100.03" stroke="#1e1e1e" stroke-width="2" fill="none"></path></g></g><mask></mask><g stroke-linecap="round"><g transform="translate(109.07700828017141 10.21860329613429) rotate(0 50.332336495563254 0.3247247515842844)"><path d="M0 0 C31.91 0.21, 63.82 0.41, 100.66 0.65 M0 0 C39.59 0.26, 79.18 0.51, 100.66 0.65" stroke="#1e1e1e" stroke-width="2" fill="none"></path></g></g><mask></mask><g stroke-linecap="round"><g transform="translate(306.50965724341313 106.9865792682495) rotate(0 -0.6494495031686256 50.65706124714757)"><path d="M0 0 C-0.5 39.31, -1.01 78.62, -1.3 101.31 M0 0 C-0.27 20.84, -0.53 41.68, -1.3 101.31" stroke="#1e1e1e" stroke-width="2" fill="none"></path></g></g><mask></mask><g stroke-linecap="round"><g transform="translate(107.12865977066554 305.06867773465984) rotate(0 63.646051310518715 0)"><path d="M0 0 C28.94 0, 57.87 0, 127.29 0 M0 0 C39.75 0, 79.5 0, 127.29 0" stroke="#1e1e1e" stroke-width="2" fill="none"></path></g></g><mask></mask><g stroke-linecap="round"><g transform="translate(109.72645778333981 108.28547827458664) rotate(0 50.007611743979055 50.007611743979)"><path d="M0 0 C30.11 30.11, 60.22 60.22, 100.02 100.02 M0 0 C28.87 28.87, 57.75 57.75, 100.02 100.02" stroke="#1e1e1e" stroke-width="2" fill="none"></path></g></g><mask></mask><g stroke-linecap="round"><g transform="translate(110.37590728650844 207.65125225937612) rotate(0 49.35816224081043 -49.033437489226145)"><path d="M0 0 C24.61 -24.45, 49.22 -48.89, 98.72 -98.07 M0 0 C19.97 -19.83, 39.93 -39.67, 98.72 -98.07" stroke="#1e1e1e" stroke-width="2" fill="none"></path></g></g><mask></mask><g stroke-linecap="round" transform="translate(304.57684308833086 10.539712163719969) rotate(0 49 49)"><path d="M0 0 C21.87 0, 43.74 0, 98 0 M0 0 C23.33 0, 46.65 0, 98 0 M98 0 C98 23.69, 98 47.39, 98 98 M98 0 C98 26.75, 98 53.5, 98 98 M98 98 C74.61 98, 51.21 98, 0 98 M98 98 C69.73 98, 41.45 98, 0 98 M0 98 C0 66.96, 0 35.93, 0 0 M0 98 C0 58.86, 0 19.73, 0 0" stroke="#1e1e1e" stroke-width="2" fill="none"></path></g><g stroke-linecap="round" transform="translate(501.3338996414859 11.025599057410147) rotate(0 49 49)"><path d="M0 0 C23.31 0, 46.62 0, 98 0 M0 0 C28.54 0, 57.07 0, 98 0 M98 0 C98 34.6, 98 69.21, 98 98 M98 0 C98 23.67, 98 47.33, 98 98 M98 98 C74.86 98, 51.73 98, 0 98 M98 98 C73.13 98, 48.26 98, 0 98 M0 98 C0 69.56, 0 41.13, 0 0 M0 98 C0 60.49, 0 22.98, 0 0" stroke="#1e1e1e" stroke-width="2" fill="none"></path></g><g stroke-linecap="round" transform="translate(501.3338996414859 207.0255990574101) rotate(0 49 49)"><path d="M0 0 C21.52 0, 43.03 0, 98 0 M0 0 C39.02 0, 78.03 0, 98 0 M98 0 C98 32.64, 98 65.28, 98 98 M98 0 C98 36.44, 98 72.88, 98 98 M98 98 C73.03 98, 48.07 98, 0 98 M98 98 C61.52 98, 25.04 98, 0 98 M0 98 C0 71.57, 0 45.13, 0 0 M0 98 C0 67.33, 0 36.65, 0 0" stroke="#1e1e1e" stroke-width="2" fill="none"></path></g><g stroke-linecap="round" transform="translate(305.3338996414859 207.0255990574101) rotate(0 49 49)"><path d="M0 0 C30.79 0, 61.59 0, 98 0 M0 0 C19.99 0, 39.98 0, 98 0 M98 0 C98 25.74, 98 51.47, 98 98 M98 0 C98 25.95, 98 51.9, 98 98 M98 98 C70.63 98, 43.25 98, 0 98 M98 98 C65.49 98, 32.99 98, 0 98 M0 98 C0 67.37, 0 36.74, 0 0 M0 98 C0 69, 0 40, 0 0" stroke="#1e1e1e" stroke-width="2" fill="none"></path></g><g stroke-linecap="round"><g transform="translate(304.97949176221914 108.2935178964043) rotate(0 0.16783069501252612 50.013547113731974)"><path d="M0 0 C0.1 30.95, 0.21 61.9, 0.34 100.03 M0 0 C0.13 39.68, 0.27 79.36, 0.34 100.03" stroke="#1e1e1e" stroke-width="2" fill="none"></path></g></g><mask></mask><g stroke-linecap="round"><g transform="translate(402.3415412793154 10.4226889763612) rotate(0 50.332336495563254 0.3247247515842844)"><path d="M0 0 C30.51 0.2, 61.02 0.39, 100.66 0.65 M0 0 C34.05 0.22, 68.09 0.44, 100.66 0.65" stroke="#1e1e1e" stroke-width="2" fill="none"></path></g></g><mask></mask><g stroke-linecap="round"><g transform="translate(599.7741902425571 107.19066494847641) rotate(0 -0.6494495031685119 50.65706124714757)"><path d="M0 0 C-0.48 37.72, -0.97 75.43, -1.3 101.31 M0 0 C-0.38 29.96, -0.77 59.92, -1.3 101.31" stroke="#1e1e1e" stroke-width="2" fill="none"></path></g></g><mask></mask><g stroke-linecap="round"><g transform="translate(400.3931927698095 305.27276341488675) rotate(0 63.646051310518715 0)"><path d="M0 0 C30.77 0, 61.55 0, 127.29 0 M0 0 C34.75 0, 69.5 0, 127.29 0" stroke="#1e1e1e" stroke-width="2" fill="none"></path></g></g><mask></mask><g stroke-linecap="round"><g transform="translate(402.9909907824838 108.48956395481355) rotate(0 50.007611743979055 50.007611743979)"><path d="M0 0 C35.31 35.31, 70.63 70.63, 100.02 100.02 M0 0 C24.15 24.15, 48.31 48.31, 100.02 100.02" stroke="#1e1e1e" stroke-width="2" fill="none"></path></g></g><mask></mask><g stroke-linecap="round"><g transform="translate(403.6404402856524 207.85533793960303) rotate(0 49.35816224081043 -49.033437489226145)"><path d="M0 0 C32.88 -32.66, 65.76 -65.33, 98.72 -98.07 M0 0 C36.71 -36.46, 73.41 -72.93, 98.72 -98.07" stroke="#1e1e1e" stroke-width="2" fill="none"></path></g></g><mask></mask><g stroke-linecap="round" transform="translate(597.840327207306 305.03896467938466) rotate(0 49 49)"><path d="M0 0 C22.58 0, 45.15 0, 98 0 M0 0 C31.08 0, 62.16 0, 98 0 M98 0 C98 37.44, 98 74.89, 98 98 M98 0 C98 24.88, 98 49.76, 98 98 M98 98 C72.59 98, 47.18 98, 0 98 M98 98 C71.61 98, 45.22 98, 0 98 M0 98 C0 74.77, 0 51.53, 0 0 M0 98 C0 68.56, 0 39.13, 0 0" stroke="#1e1e1e" stroke-width="2" fill="none"></path></g><g stroke-linecap="round" transform="translate(794.5973837604611 305.5248515730748) rotate(0 49 49)"><path d="M0 0 C39.04 0, 78.08 0, 98 0 M0 0 C21.73 0, 43.46 0, 98 0 M98 0 C98 31.87, 98 63.74, 98 98 M98 0 C98 32.4, 98 64.8, 98 98 M98 98 C77.47 98, 56.95 98, 0 98 M98 98 C68.78 98, 39.56 98, 0 98 M0 98 C0 74.96, 0 51.93, 0 0 M0 98 C0 72.32, 0 46.64, 0 0" stroke="#1e1e1e" stroke-width="2" fill="none"></path></g><g stroke-linecap="round" transform="translate(794.5973837604611 501.5248515730748) rotate(0 49 49)"><path d="M0 0 C23.42 0, 46.85 0, 98 0 M0 0 C30.46 0, 60.91 0, 98 0 M98 0 C98 24.49, 98 48.99, 98 98 M98 0 C98 27.22, 98 54.45, 98 98 M98 98 C67.14 98, 36.28 98, 0 98 M98 98 C75.02 98, 52.03 98, 0 98 M0 98 C0 64.15, 0 30.31, 0 0 M0 98 C0 68.55, 0 39.11, 0 0" stroke="#1e1e1e" stroke-width="2" fill="none"></path></g><g stroke-linecap="round" transform="translate(598.5973837604611 501.5248515730748) rotate(0 49 49)"><path d="M0 0 C37.47 0, 74.94 0, 98 0 M0 0 C36.35 0, 72.7 0, 98 0 M98 0 C98 30.46, 98 60.91, 98 98 M98 0 C98 31.07, 98 62.14, 98 98 M98 98 C60.19 98, 22.39 98, 0 98 M98 98 C68.24 98, 38.48 98, 0 98 M0 98 C0 62.22, 0 26.45, 0 0 M0 98 C0 77.09, 0 56.19, 0 0" stroke="#1e1e1e" stroke-width="2" fill="none"></path></g><g stroke-linecap="round"><g transform="translate(598.2429758811943 402.7927704120689) rotate(0 0.16783069501252612 50.01354711373199)"><path d="M0 0 C0.13 38.26, 0.26 76.53, 0.34 100.03 M0 0 C0.11 33.04, 0.22 66.08, 0.34 100.03" stroke="#1e1e1e" stroke-width="2" fill="none"></path></g></g><mask></mask><g stroke-linecap="round"><g transform="translate(695.6050253982903 304.9219414920258) rotate(0 50.332336495563254 0.3247247515842844)"><path d="M0 0 C35.13 0.23, 70.26 0.45, 100.66 0.65 M0 0 C32.97 0.21, 65.95 0.43, 100.66 0.65" stroke="#1e1e1e" stroke-width="2" fill="none"></path></g></g><mask></mask><g stroke-linecap="round"><g transform="translate(893.0376743615323 401.689917464141) rotate(0 -0.6494495031685119 50.65706124714757)"><path d="M0 0 C-0.49 38.26, -0.98 76.51, -1.3 101.31 M0 0 C-0.49 38.52, -0.99 77.05, -1.3 101.31" stroke="#1e1e1e" stroke-width="2" fill="none"></path></g></g><mask></mask><g stroke-linecap="round"><g transform="translate(693.6566768887847 599.7720159305516) rotate(0 63.646051310518715 0)"><path d="M0 0 C48.64 0, 97.27 0, 127.29 0 M0 0 C32.32 0, 64.64 0, 127.29 0" stroke="#1e1e1e" stroke-width="2" fill="none"></path></g></g><mask></mask><g stroke-linecap="round"><g transform="translate(696.2544749014592 402.98881647047824) rotate(0 50.007611743979055 50.007611743979)"><path d="M0 0 C32.53 32.53, 65.05 65.05, 100.02 100.02 M0 0 C33.06 33.06, 66.13 66.13, 100.02 100.02" stroke="#1e1e1e" stroke-width="2" fill="none"></path></g></g><mask></mask><g stroke-linecap="round"><g transform="translate(696.9039244046276 502.3545904552677) rotate(0 49.35816224081043 -49.033437489226145)"><path d="M0 0 C24.67 -24.51, 49.34 -49.02, 98.72 -98.07 M0 0 C27.42 -27.24, 54.85 -54.48, 98.72 -98.07" stroke="#1e1e1e" stroke-width="2" fill="none"></path></g></g><mask></mask><g stroke-linecap="round" transform="translate(892.8253416560915 304.4019845876378) rotate(0 49 49)"><path d="M0 0 C30.46 0, 60.91 0, 98 0 M0 0 C31.07 0, 62.14 0, 98 0 M98 0 C98 37.81, 98 75.61, 98 98 M98 0 C98 29.76, 98 59.52, 98 98 M98 98 C62.22 98, 26.45 98, 0 98 M98 98 C77.09 98, 56.19 98, 0 98 M0 98 C0 72.97, 0 47.94, 0 0 M0 98 C0 64.17, 0 30.33, 0 0" stroke="#1e1e1e" stroke-width="2" fill="none"></path></g><g stroke-linecap="round" transform="translate(1089.582398209246 304.8878714813279) rotate(0 49 49)"><path d="M0 0 C20.1 0, 40.19 0, 98 0 M0 0 C28.69 0, 57.38 0, 98 0 M98 0 C98 38.59, 98 77.19, 98 98 M98 0 C98 23.02, 98 46.04, 98 98 M98 98 C71.39 98, 44.77 98, 0 98 M98 98 C60.4 98, 22.8 98, 0 98 M0 98 C0 74.35, 0 50.69, 0 0 M0 98 C0 73.37, 0 48.73, 0 0" stroke="#1e1e1e" stroke-width="2" fill="none"></path></g><g stroke-linecap="round" transform="translate(1089.582398209246 500.8878714813279) rotate(0 49 49)"><path d="M0 0 C20 0, 40 0, 98 0 M0 0 C33.41 0, 66.83 0, 98 0 M98 0 C98 29.74, 98 59.49, 98 98 M98 0 C98 32.39, 98 64.78, 98 98 M98 98 C73.13 98, 48.27 98, 0 98 M98 98 C73.62 98, 49.25 98, 0 98 M0 98 C0 61.45, 0 24.91, 0 0 M0 98 C0 78.18, 0 58.36, 0 0" stroke="#1e1e1e" stroke-width="2" fill="none"></path></g><g stroke-linecap="round" transform="translate(893.5823982092461 500.8878714813279) rotate(0 49 49)"><path d="M0 0 C37.68 0, 75.35 0, 98 0 M0 0 C35.08 0, 70.16 0, 98 0 M98 0 C98 29.73, 98 59.45, 98 98 M98 0 C98 32.76, 98 65.52, 98 98 M98 98 C64.36 98, 30.72 98, 0 98 M98 98 C61.88 98, 25.77 98, 0 98 M0 98 C0 72.89, 0 47.79, 0 0 M0 98 C0 64.4, 0 30.79, 0 0" stroke="#1e1e1e" stroke-width="2" fill="none"></path></g><g stroke-linecap="round"><g transform="translate(893.2279903299795 402.155790320322) rotate(0 0.16783069501252612 50.01354711373199)"><path d="M0 0 C0.09 25.94, 0.17 51.87, 0.34 100.03 M0 0 C0.09 26.93, 0.18 53.87, 0.34 100.03" stroke="#1e1e1e" stroke-width="2" fill="none"></path></g></g><mask></mask><g stroke-linecap="round"><g transform="translate(990.5900398470757 304.2849614002789) rotate(0 50.33233649556331 0.3247247515842844)"><path d="M0 0 C21.09 0.14, 42.17 0.27, 100.66 0.65 M0 0 C30.01 0.19, 60.03 0.39, 100.66 0.65" stroke="#1e1e1e" stroke-width="2" fill="none"></path></g></g><mask></mask><g stroke-linecap="round"><g transform="translate(1188.0226888103175 401.0529373723941) rotate(0 -0.6494495031685688 50.65706124714757)"><path d="M0 0 C-0.41 31.9, -0.82 63.81, -1.3 101.31 M0 0 C-0.3 23.76, -0.61 47.52, -1.3 101.31" stroke="#1e1e1e" stroke-width="2" fill="none"></path></g></g><mask></mask><g stroke-linecap="round"><g transform="translate(988.6416913375699 599.1350358388047) rotate(0 63.646051310518715 0)"><path d="M0 0 C49.11 0, 98.21 0, 127.29 0 M0 0 C38.65 0, 77.31 0, 127.29 0" stroke="#1e1e1e" stroke-width="2" fill="none"></path></g></g><mask></mask><g stroke-linecap="round"><g transform="translate(991.2394893502441 402.3518363787314) rotate(0 50.007611743979 50.007611743979)"><path d="M0 0 C39.39 39.39, 78.78 78.78, 100.02 100.02 M0 0 C23.5 23.5, 46.99 46.99, 100.02 100.02" stroke="#1e1e1e" stroke-width="2" fill="none"></path></g></g><mask></mask><g stroke-linecap="round"><g transform="translate(991.8889388534127 501.71761036352086) rotate(0 49.35816224081043 -49.033437489226145)"><path d="M0 0 C29.96 -29.76, 59.92 -59.53, 98.72 -98.07 M0 0 C32.63 -32.41, 65.26 -64.83, 98.72 -98.07" stroke="#1e1e1e" stroke-width="2" fill="none"></path></g></g><mask></mask><g stroke-linecap="round" transform="translate(599.1526372964931 10.117023187358768) rotate(0 49 49)"><path d="M0 0 C29.73 0, 59.45 0, 98 0 M0 0 C32.76 0, 65.52 0, 98 0 M98 0 C98 33.64, 98 67.28, 98 98 M98 0 C98 36.12, 98 72.23, 98 98 M98 98 C72.89 98, 47.79 98, 0 98 M98 98 C64.4 98, 30.79 98, 0 98 M0 98 C0 63.16, 0 28.33, 0 0 M0 98 C0 74.12, 0 50.23, 0 0" stroke="#1e1e1e" stroke-width="2" fill="none"></path></g><g stroke-linecap="round" transform="translate(795.9096938496482 10.602910081048947) rotate(0 49 49)"><path d="M0 0 C23.23 0, 46.47 0, 98 0 M0 0 C29.44 0, 58.87 0, 98 0 M98 0 C98 24.09, 98 48.19, 98 98 M98 0 C98 28.88, 98 57.75, 98 98 M98 98 C59.78 98, 21.56 98, 0 98 M98 98 C69.47 98, 40.93 98, 0 98 M0 98 C0 62.06, 0 26.11, 0 0 M0 98 C0 68.43, 0 38.85, 0 0" stroke="#1e1e1e" stroke-width="2" fill="none"></path></g><g stroke-linecap="round" transform="translate(795.9096938496482 206.602910081049) rotate(0 49 49)"><path d="M0 0 C23.04 0, 46.07 0, 98 0 M0 0 C25.68 0, 51.36 0, 98 0 M98 0 C98 36.5, 98 73, 98 98 M98 0 C98 23.43, 98 46.87, 98 98 M98 98 C59.06 98, 20.13 98, 0 98 M98 98 C77.77 98, 57.53 98, 0 98 M0 98 C0 67.68, 0 37.36, 0 0 M0 98 C0 60.49, 0 22.97, 0 0" stroke="#1e1e1e" stroke-width="2" fill="none"></path></g><g stroke-linecap="round" transform="translate(599.9096938496482 206.602910081049) rotate(0 49 49)"><path d="M0 0 C33.85 0, 67.69 0, 98 0 M0 0 C29.45 0, 58.89 0, 98 0 M98 0 C98 26.51, 98 53.03, 98 98 M98 0 C98 33.61, 98 67.23, 98 98 M98 98 C72.89 98, 47.79 98, 0 98 M98 98 C72.66 98, 47.31 98, 0 98 M0 98 C0 66.32, 0 34.63, 0 0 M0 98 C0 73.1, 0 48.2, 0 0" stroke="#1e1e1e" stroke-width="2" fill="none"></path></g><g stroke-linecap="round"><g transform="translate(599.5552859703814 107.8708289200431) rotate(0 0.16783069501252612 50.013547113731974)"><path d="M0 0 C0.12 36.52, 0.25 73.03, 0.34 100.03 M0 0 C0.07 21.34, 0.14 42.68, 0.34 100.03" stroke="#1e1e1e" stroke-width="2" fill="none"></path></g></g><mask></mask><g stroke-linecap="round"><g transform="translate(696.9173354874774 10) rotate(0 50.332336495563254 0.3247247515842844)"><path d="M0 0 C27.34 0.18, 54.67 0.35, 100.66 0.65 M0 0 C38.62 0.25, 77.25 0.5, 100.66 0.65" stroke="#1e1e1e" stroke-width="2" fill="none"></path></g></g><mask></mask><g stroke-linecap="round"><g transform="translate(894.3499844507194 106.76797597211521) rotate(0 -0.6494495031685119 50.65706124714757)"><path d="M0 0 C-0.33 25.71, -0.66 51.42, -1.3 101.31 M0 0 C-0.32 25.2, -0.65 50.4, -1.3 101.31" stroke="#1e1e1e" stroke-width="2" fill="none"></path></g></g><mask></mask><g stroke-linecap="round"><g transform="translate(694.9689869779718 304.85007443852555) rotate(0 63.646051310518715 0)"><path d="M0 0 C43.7 0, 87.39 0, 127.29 0 M0 0 C46.91 0, 93.82 0, 127.29 0" stroke="#1e1e1e" stroke-width="2" fill="none"></path></g></g><mask></mask><g stroke-linecap="round"><g transform="translate(697.566784990646 108.06687497845246) rotate(0 50.007611743979055 50.007611743979)"><path d="M0 0 C24.59 24.59, 49.18 49.18, 100.02 100.02 M0 0 C29.47 29.47, 58.94 58.94, 100.02 100.02" stroke="#1e1e1e" stroke-width="2" fill="none"></path></g></g><mask></mask><g stroke-linecap="round"><g transform="translate(698.2162344938147 207.43264896324195) rotate(0 49.35816224081043 -49.033437489226145)"><path d="M0 0 C36.77 -36.52, 73.53 -73.05, 98.72 -98.07 M0 0 C23.61 -23.45, 47.21 -46.9, 98.72 -98.07" stroke="#1e1e1e" stroke-width="2" fill="none"></path></g></g><mask></mask><g stroke-linecap="round" transform="translate(892.4171702956371 10.321108867585679) rotate(0 49 49)"><path d="M0 0 C26.51 0, 53.03 0, 98 0 M0 0 C33.61 0, 67.23 0, 98 0 M98 0 C98 25.11, 98 50.21, 98 98 M98 0 C98 25.34, 98 50.69, 98 98 M98 98 C66.32 98, 34.63 98, 0 98 M98 98 C73.1 98, 48.2 98, 0 98 M0 98 C0 62.04, 0 26.08, 0 0 M0 98 C0 65.87, 0 33.75, 0 0" stroke="#1e1e1e" stroke-width="2" fill="none"></path></g><g stroke-linecap="round" transform="translate(1089.1742268487922 10.806995761275857) rotate(0 49 49)"><path d="M0 0 C25.03 0, 50.06 0, 98 0 M0 0 C33.83 0, 67.67 0, 98 0 M98 0 C98 32.47, 98 64.95, 98 98 M98 0 C98 29.05, 98 58.11, 98 98 M98 98 C63.31 98, 28.63 98, 0 98 M98 98 C74.17 98, 50.34 98, 0 98 M0 98 C0 59.83, 0 21.66, 0 0 M0 98 C0 76.26, 0 54.52, 0 0" stroke="#1e1e1e" stroke-width="2" fill="none"></path></g><g stroke-linecap="round" transform="translate(1089.1742268487922 206.80699576127586) rotate(0 49 49)"><path d="M0 0 C23.65 0, 47.31 0, 98 0 M0 0 C24.63 0, 49.27 0, 98 0 M98 0 C98 20.12, 98 40.23, 98 98 M98 0 C98 31.05, 98 62.1, 98 98 M98 98 C60.45 98, 22.91 98, 0 98 M98 98 C67.93 98, 37.86 98, 0 98 M0 98 C0 65.53, 0 33.06, 0 0 M0 98 C0 70.83, 0 43.67, 0 0" stroke="#1e1e1e" stroke-width="2" fill="none"></path></g><g stroke-linecap="round" transform="translate(893.1742268487922 206.80699576127586) rotate(0 49 49)"><path d="M0 0 C36.55 0, 73.09 0, 98 0 M0 0 C19.82 0, 39.64 0, 98 0 M98 0 C98 30.32, 98 60.64, 98 98 M98 0 C98 32.63, 98 65.27, 98 98 M98 98 C72.47 98, 46.94 98, 0 98 M98 98 C68.64 98, 39.28 98, 0 98 M0 98 C0 59.63, 0 21.27, 0 0 M0 98 C0 62.87, 0 27.74, 0 0" stroke="#1e1e1e" stroke-width="2" fill="none"></path></g><g stroke-linecap="round"><g transform="translate(892.8198189695254 108.07491460026995) rotate(0 0.16783069501252612 50.013547113731974)"><path d="M0 0 C0.09 25.63, 0.17 51.25, 0.34 100.03 M0 0 C0.12 34.3, 0.23 68.6, 0.34 100.03" stroke="#1e1e1e" stroke-width="2" fill="none"></path></g></g><mask></mask><g stroke-linecap="round"><g transform="translate(990.1818684866216 10.20408568022691) rotate(0 50.332336495563254 0.3247247515842844)"><path d="M0 0 C39.26 0.25, 78.52 0.51, 100.66 0.65 M0 0 C29.31 0.19, 58.62 0.38, 100.66 0.65" stroke="#1e1e1e" stroke-width="2" fill="none"></path></g></g><mask></mask><g stroke-linecap="round"><g transform="translate(1187.6145174498633 106.97206165234206) rotate(0 -0.6494495031685688 50.65706124714757)"><path d="M0 0 C-0.52 40.25, -1.03 80.51, -1.3 101.31 M0 0 C-0.27 20.92, -0.54 41.83, -1.3 101.31" stroke="#1e1e1e" stroke-width="2" fill="none"></path></g></g><mask></mask><g stroke-linecap="round"><g transform="translate(988.2335199771159 305.0541601187524) rotate(0 63.646051310518715 0)"><path d="M0 0 C32.61 0, 65.22 0, 127.29 0 M0 0 C32.92 0, 65.83 0, 127.29 0" stroke="#1e1e1e" stroke-width="2" fill="none"></path></g></g><mask></mask><g stroke-linecap="round"><g transform="translate(990.83131798979 108.27096065867931) rotate(0 50.007611743979055 50.007611743979)"><path d="M0 0 C33.14 33.14, 66.28 66.28, 100.02 100.02 M0 0 C29.65 29.65, 59.3 59.3, 100.02 100.02" stroke="#1e1e1e" stroke-width="2" fill="none"></path></g></g><mask></mask><g stroke-linecap="round"><g transform="translate(991.4807674929586 207.6367346434688) rotate(0 49.35816224081043 -49.033437489226145)"><path d="M0 0 C20.26 -20.13, 40.53 -40.26, 98.72 -98.07 M0 0 C31.28 -31.07, 62.55 -62.14, 98.72 -98.07" stroke="#1e1e1e" stroke-width="2" fill="none"></path></g></g><mask></mask><g stroke-linecap="round" transform="translate(11.715702879224864 896.356396540712) rotate(0 49 49)"><path d="M0 0 C35.84 0, 71.68 0, 98 0 M0 0 C33.88 0, 67.76 0, 98 0 M98 0 C98 32.21, 98 64.41, 98 98 M98 0 C98 24.2, 98 48.4, 98 98 M98 98 C70.87 98, 43.73 98, 0 98 M98 98 C73.29 98, 48.58 98, 0 98 M0 98 C0 69.43, 0 40.87, 0 0 M0 98 C0 59.33, 0 20.66, 0 0" stroke="#1e1e1e" stroke-width="2" fill="none"></path></g><g stroke-linecap="round" transform="translate(208.47275943237992 896.8422834344021) rotate(0 49 49)"><path d="M0 0 C28.69 0, 57.39 0, 98 0 M0 0 C26.97 0, 53.95 0, 98 0 M98 0 C98 34.4, 98 68.79, 98 98 M98 0 C98 37.78, 98 75.56, 98 98 M98 98 C59.02 98, 20.04 98, 0 98 M98 98 C69.06 98, 40.12 98, 0 98 M0 98 C0 67.76, 0 37.52, 0 0 M0 98 C0 60.33, 0 22.67, 0 0" stroke="#1e1e1e" stroke-width="2" fill="none"></path></g><g stroke-linecap="round" transform="translate(208.47275943237992 1092.8422834344021) rotate(0 49 49)"><path d="M0 0 C24.67 0, 49.35 0, 98 0 M0 0 C26.7 0, 53.4 0, 98 0 M98 0 C98 20.9, 98 41.81, 98 98 M98 0 C98 23.54, 98 47.07, 98 98 M98 98 C61.35 98, 24.7 98, 0 98 M98 98 C65.63 98, 33.27 98, 0 98 M0 98 C0 60.29, 0 22.59, 0 0 M0 98 C0 60.04, 0 22.07, 0 0" stroke="#1e1e1e" stroke-width="2" fill="none"></path></g><g stroke-linecap="round" transform="translate(12.472759432379917 1092.8422834344021) rotate(0 49 49)"><path d="M0 0 C34.24 0, 68.48 0, 98 0 M0 0 C29.39 0, 58.78 0, 98 0 M98 0 C98 34.4, 98 68.81, 98 98 M98 0 C98 23.07, 98 46.15, 98 98 M98 98 C64.84 98, 31.68 98, 0 98 M98 98 C61.29 98, 24.58 98, 0 98 M0 98 C0 66.73, 0 35.45, 0 0 M0 98 C0 64.12, 0 30.25, 0 0" stroke="#1e1e1e" stroke-width="2" fill="none"></path></g><g stroke-linecap="round"><g transform="translate(12.118351553113143 994.1102022733962) rotate(0 0.16783069501252612 50.01354711373199)"><path d="M0 0 C0.13 39.03, 0.26 78.05, 0.34 100.03 M0 0 C0.07 20.66, 0.14 41.33, 0.34 100.03" stroke="#1e1e1e" stroke-width="2" fill="none"></path></g></g><mask></mask><g stroke-linecap="round"><g transform="translate(109.48040107020938 896.2393733533531) rotate(0 50.332336495563254 0.32472475158425596)"><path d="M0 0 C34.76 0.22, 69.51 0.45, 100.66 0.65 M0 0 C36.18 0.23, 72.35 0.47, 100.66 0.65" stroke="#1e1e1e" stroke-width="2" fill="none"></path></g></g><mask></mask><g stroke-linecap="round"><g transform="translate(306.9130500334511 993.0073493254686) rotate(0 -0.6494495031685119 50.65706124714757)"><path d="M0 0 C-0.29 22.41, -0.57 44.82, -1.3 101.31 M0 0 C-0.36 27.77, -0.71 55.54, -1.3 101.31" stroke="#1e1e1e" stroke-width="2" fill="none"></path></g></g><mask></mask><g stroke-linecap="round"><g transform="translate(107.5320525607035 1191.0894477918787) rotate(0 63.646051310518715 0)"><path d="M0 0 C41.83 0, 83.66 0, 127.29 0 M0 0 C31.43 0, 62.87 0, 127.29 0" stroke="#1e1e1e" stroke-width="2" fill="none"></path></g></g><mask></mask><g stroke-linecap="round"><g transform="translate(110.12985057337778 994.3062483318056) rotate(0 50.007611743979055 50.007611743979)"><path d="M0 0 C35.1 35.1, 70.21 70.21, 100.02 100.02 M0 0 C38.55 38.55, 77.11 77.11, 100.02 100.02" stroke="#1e1e1e" stroke-width="2" fill="none"></path></g></g><mask></mask><g stroke-linecap="round"><g transform="translate(110.7793000765464 1093.672022316595) rotate(0 49.35816224081043 -49.03343748922617)"><path d="M0 0 C21.06 -20.92, 42.11 -41.84, 98.72 -98.07 M0 0 C23.71 -23.55, 47.42 -47.11, 98.72 -98.07" stroke="#1e1e1e" stroke-width="2" fill="none"></path></g></g><mask></mask><g stroke-linecap="round" transform="translate(306.70071732801034 895.7194164489651) rotate(0 49 49)"><path d="M0 0 C34.4 0, 68.81 0, 98 0 M0 0 C23.07 0, 46.15 0, 98 0 M98 0 C98 33.16, 98 66.32, 98 98 M98 0 C98 36.71, 98 73.42, 98 98 M98 98 C66.73 98, 35.45 98, 0 98 M98 98 C64.12 98, 30.25 98, 0 98 M0 98 C0 71.15, 0 44.31, 0 0 M0 98 C0 59.9, 0 21.8, 0 0" stroke="#1e1e1e" stroke-width="2" fill="none"></path></g><g stroke-linecap="round" transform="translate(503.45777388116494 896.2053033426553) rotate(0 49 49)"><path d="M0 0 C37.12 0, 74.23 0, 98 0 M0 0 C29.5 0, 59 0, 98 0 M98 0 C98 27.85, 98 55.7, 98 98 M98 0 C98 36.25, 98 72.49, 98 98 M98 98 C73.27 98, 48.53 98, 0 98 M98 98 C64.28 98, 30.56 98, 0 98 M0 98 C0 71.46, 0 44.93, 0 0 M0 98 C0 59.06, 0 20.11, 0 0" stroke="#1e1e1e" stroke-width="2" fill="none"></path></g><g stroke-linecap="round" transform="translate(503.45777388116494 1092.2053033426553) rotate(0 49 49)"><path d="M0 0 C35.16 0, 70.31 0, 98 0 M0 0 C29.71 0, 59.42 0, 98 0 M98 0 C98 32.71, 98 65.42, 98 98 M98 0 C98 20.88, 98 41.76, 98 98 M98 98 C65.12 98, 32.23 98, 0 98 M98 98 C74.35 98, 50.7 98, 0 98 M0 98 C0 64.71, 0 31.42, 0 0 M0 98 C0 77, 0 56, 0 0" stroke="#1e1e1e" stroke-width="2" fill="none"></path></g><g stroke-linecap="round" transform="translate(307.45777388116494 1092.2053033426553) rotate(0 49 49)"><path d="M0 0 C26.46 0, 52.92 0, 98 0 M0 0 C27.03 0, 54.06 0, 98 0 M98 0 C98 20.31, 98 40.62, 98 98 M98 0 C98 37.98, 98 75.96, 98 98 M98 98 C58.92 98, 19.84 98, 0 98 M98 98 C68.45 98, 38.89 98, 0 98 M0 98 C0 59.83, 0 21.66, 0 0 M0 98 C0 76.89, 0 55.77, 0 0" stroke="#1e1e1e" stroke-width="2" fill="none"></path></g><g stroke-linecap="round"><g transform="translate(307.1033660018984 993.4732221816494) rotate(0 0.16783069501252612 50.01354711373199)"><path d="M0 0 C0.09 27.69, 0.19 55.39, 0.34 100.03 M0 0 C0.08 25.22, 0.17 50.44, 0.34 100.03" stroke="#1e1e1e" stroke-width="2" fill="none"></path></g></g><mask></mask><g stroke-linecap="round"><g transform="translate(404.46541551899463 895.6023932616063) rotate(0 50.332336495563254 0.32472475158425596)"><path d="M0 0 C40.04 0.26, 80.08 0.52, 100.66 0.65 M0 0 C29.73 0.19, 59.46 0.38, 100.66 0.65" stroke="#1e1e1e" stroke-width="2" fill="none"></path></g></g><mask></mask><g stroke-linecap="round"><g transform="translate(601.8980644822364 992.3703692337217) rotate(0 -0.6494495031686256 50.65706124714757)"><path d="M0 0 C-0.49 37.89, -0.97 75.78, -1.3 101.31 M0 0 C-0.43 33.46, -0.86 66.92, -1.3 101.31" stroke="#1e1e1e" stroke-width="2" fill="none"></path></g></g><mask></mask><g stroke-linecap="round"><g transform="translate(402.51706700948876 1190.4524677001318) rotate(0 63.646051310518715 0)"><path d="M0 0 C43.07 0, 86.15 0, 127.29 0 M0 0 C47.68 0, 95.36 0, 127.29 0" stroke="#1e1e1e" stroke-width="2" fill="none"></path></g></g><mask></mask><g stroke-linecap="round"><g transform="translate(405.11486502216303 993.6692682400587) rotate(0 50.007611743979055 50.007611743979)"><path d="M0 0 C28.42 28.42, 56.85 56.85, 100.02 100.02 M0 0 C36.99 36.99, 73.98 73.98, 100.02 100.02" stroke="#1e1e1e" stroke-width="2" fill="none"></path></g></g><mask></mask><g stroke-linecap="round"><g transform="translate(405.76431452533143 1093.0350422248482) rotate(0 49.35816224081043 -49.03343748922617)"><path d="M0 0 C32.95 -32.73, 65.9 -65.46, 98.72 -98.07 M0 0 C21.03 -20.89, 42.06 -41.78, 98.72 -98.07" stroke="#1e1e1e" stroke-width="2" fill="none"></path></g></g><mask></mask><g stroke-linecap="round" transform="translate(13.028012968411986 601.4344550486862) rotate(0 49 49)"><path d="M0 0 C20.31 0, 40.62 0, 98 0 M0 0 C37.98 0, 75.96 0, 98 0 M98 0 C98 39.08, 98 78.16, 98 98 M98 0 C98 29.55, 98 59.11, 98 98 M98 98 C59.83 98, 21.66 98, 0 98 M98 98 C76.89 98, 55.77 98, 0 98 M0 98 C0 60.3, 0 22.61, 0 0 M0 98 C0 73.42, 0 48.84, 0 0" stroke="#1e1e1e" stroke-width="2" fill="none"></path></g><g stroke-linecap="round" transform="translate(209.78506952156704 601.9203419423764) rotate(0 49 49)"><path d="M0 0 C28.57 0, 57.13 0, 98 0 M0 0 C38.67 0, 77.34 0, 98 0 M98 0 C98 21.57, 98 43.14, 98 98 M98 0 C98 22.09, 98 44.18, 98 98 M98 98 C62.89 98, 27.79 98, 0 98 M98 98 C75.24 98, 52.49 98, 0 98 M0 98 C0 65.62, 0 33.23, 0 0 M0 98 C0 72.73, 0 47.45, 0 0" stroke="#1e1e1e" stroke-width="2" fill="none"></path></g><g stroke-linecap="round" transform="translate(209.78506952156704 797.9203419423764) rotate(0 49 49)"><path d="M0 0 C30.24 0, 60.48 0, 98 0 M0 0 C37.67 0, 75.33 0, 98 0 M98 0 C98 38.62, 98 77.24, 98 98 M98 0 C98 37.36, 98 74.72, 98 98 M98 98 C70.4 98, 42.8 98, 0 98 M98 98 C60.53 98, 23.06 98, 0 98 M0 98 C0 59.15, 0 20.3, 0 0 M0 98 C0 71.48, 0 44.96, 0 0" stroke="#1e1e1e" stroke-width="2" fill="none"></path></g><g stroke-linecap="round" transform="translate(13.785069521567038 797.9203419423764) rotate(0 49 49)"><path d="M0 0 C37.71 0, 75.41 0, 98 0 M0 0 C37.96 0, 75.93 0, 98 0 M98 0 C98 19.67, 98 39.33, 98 98 M98 0 C98 23.17, 98 46.34, 98 98 M98 98 C62.51 98, 27.01 98, 0 98 M98 98 C68.46 98, 38.93 98, 0 98 M0 98 C0 70.93, 0 43.85, 0 0 M0 98 C0 76.05, 0 54.1, 0 0" stroke="#1e1e1e" stroke-width="2" fill="none"></path></g><g stroke-linecap="round"><g transform="translate(13.430661642300265 699.1882607813704) rotate(0 0.16783069501252612 50.01354711373199)"><path d="M0 0 C0.11 31.92, 0.21 63.84, 0.34 100.03 M0 0 C0.12 34.58, 0.23 69.16, 0.34 100.03" stroke="#1e1e1e" stroke-width="2" fill="none"></path></g></g><mask></mask><g stroke-linecap="round"><g transform="translate(110.79271115939628 601.3174318613273) rotate(0 50.332336495563254 0.3247247515842844)"><path d="M0 0 C25.41 0.16, 50.81 0.33, 100.66 0.65 M0 0 C34.63 0.22, 69.27 0.45, 100.66 0.65" stroke="#1e1e1e" stroke-width="2" fill="none"></path></g></g><mask></mask><g stroke-linecap="round"><g transform="translate(308.2253601226382 698.0854078334426) rotate(0 -0.6494495031685119 50.65706124714757)"><path d="M0 0 C-0.44 34, -0.87 67.99, -1.3 101.31 M0 0 C-0.31 24.45, -0.63 48.9, -1.3 101.31" stroke="#1e1e1e" stroke-width="2" fill="none"></path></g></g><mask></mask><g stroke-linecap="round"><g transform="translate(108.84436264989063 896.1675062998529) rotate(0 63.646051310518715 0)"><path d="M0 0 C50.76 0, 101.53 0, 127.29 0 M0 0 C38.39 0, 76.77 0, 127.29 0" stroke="#1e1e1e" stroke-width="2" fill="none"></path></g></g><mask></mask><g stroke-linecap="round"><g transform="translate(111.4421606625649 699.3843068397798) rotate(0 50.007611743979055 50.007611743979)"><path d="M0 0 C22.01 22.01, 44.03 44.03, 100.02 100.02 M0 0 C22.54 22.54, 45.09 45.09, 100.02 100.02" stroke="#1e1e1e" stroke-width="2" fill="none"></path></g></g><mask></mask><g stroke-linecap="round"><g transform="translate(112.09161016573353 798.7500808245693) rotate(0 49.35816224081043 -49.033437489226145)"><path d="M0 0 C38.9 -38.65, 77.81 -77.29, 98.72 -98.07 M0 0 C37.63 -37.39, 75.27 -74.77, 98.72 -98.07" stroke="#1e1e1e" stroke-width="2" fill="none"></path></g></g><mask></mask><g stroke-linecap="round" transform="translate(306.29254596755595 601.6385407289131) rotate(0 49 49)"><path d="M0 0 C19.67 0, 39.33 0, 98 0 M0 0 C23.17 0, 46.34 0, 98 0 M98 0 C98 35.49, 98 70.99, 98 98 M98 0 C98 29.54, 98 59.07, 98 98 M98 98 C70.93 98, 43.85 98, 0 98 M98 98 C76.05 98, 54.1 98, 0 98 M0 98 C0 68.82, 0 39.63, 0 0 M0 98 C0 70.33, 0 42.66, 0 0" stroke="#1e1e1e" stroke-width="2" fill="none"></path></g><g stroke-linecap="round" transform="translate(503.049602520711 602.1244276226032) rotate(0 49 49)"><path d="M0 0 C26.85 0, 53.69 0, 98 0 M0 0 C38.1 0, 76.2 0, 98 0 M98 0 C98 23.28, 98 46.57, 98 98 M98 0 C98 36.65, 98 73.31, 98 98 M98 98 C60.75 98, 23.49 98, 0 98 M98 98 C76.37 98, 54.73 98, 0 98 M0 98 C0 69.74, 0 41.49, 0 0 M0 98 C0 67.04, 0 36.08, 0 0" stroke="#1e1e1e" stroke-width="2" fill="none"></path></g><g stroke-linecap="round" transform="translate(503.049602520711 798.1244276226032) rotate(0 49 49)"><path d="M0 0 C26.54 0, 53.07 0, 98 0 M0 0 C38.94 0, 77.89 0, 98 0 M98 0 C98 24.47, 98 48.94, 98 98 M98 0 C98 35.78, 98 71.56, 98 98 M98 98 C68.24 98, 38.49 98, 0 98 M98 98 C62.45 98, 26.91 98, 0 98 M0 98 C0 75.23, 0 52.46, 0 0 M0 98 C0 77.92, 0 57.85, 0 0" stroke="#1e1e1e" stroke-width="2" fill="none"></path></g><g stroke-linecap="round" transform="translate(307.049602520711 798.1244276226032) rotate(0 49 49)"><path d="M0 0 C33.29 0, 66.58 0, 98 0 M0 0 C21 0, 42 0, 98 0 M98 0 C98 30.7, 98 61.41, 98 98 M98 0 C98 24.59, 98 49.19, 98 98 M98 98 C68.95 98, 39.9 98, 0 98 M98 98 C60.57 98, 23.14 98, 0 98 M0 98 C0 70.24, 0 42.48, 0 0 M0 98 C0 61.92, 0 25.84, 0 0" stroke="#1e1e1e" stroke-width="2" fill="none"></path></g><g stroke-linecap="round"><g transform="translate(306.69519464144423 699.3923464615973) rotate(0 0.16783069501252612 50.01354711373199)"><path d="M0 0 C0.13 38.96, 0.26 77.92, 0.34 100.03 M0 0 C0.07 21.55, 0.14 43.1, 0.34 100.03" stroke="#1e1e1e" stroke-width="2" fill="none"></path></g></g><mask></mask><g stroke-linecap="round"><g transform="translate(404.05724415854047 601.5215175415542) rotate(0 50.332336495563254 0.3247247515842844)"><path d="M0 0 C36.06 0.23, 72.12 0.47, 100.66 0.65 M0 0 C23.37 0.15, 46.75 0.3, 100.66 0.65" stroke="#1e1e1e" stroke-width="2" fill="none"></path></g></g><mask></mask><g stroke-linecap="round"><g transform="translate(601.4898931217822 698.2894935136694) rotate(0 -0.6494495031686256 50.65706124714757)"><path d="M0 0 C-0.37 28.54, -0.73 57.07, -1.3 101.31 M0 0 C-0.5 38.74, -0.99 77.47, -1.3 101.31" stroke="#1e1e1e" stroke-width="2" fill="none"></path></g></g><mask></mask><g stroke-linecap="round"><g transform="translate(402.1088956490348 896.3715919800798) rotate(0 63.646051310518715 0)"><path d="M0 0 C46.1 0, 92.21 0, 127.29 0 M0 0 C38.37 0, 76.73 0, 127.29 0" stroke="#1e1e1e" stroke-width="2" fill="none"></path></g></g><mask></mask><g stroke-linecap="round"><g transform="translate(404.70669366170887 699.5883925200067) rotate(0 50.007611743979055 50.007611743979)"><path d="M0 0 C23.76 23.76, 47.52 47.52, 100.02 100.02 M0 0 C37.41 37.41, 74.82 74.82, 100.02 100.02" stroke="#1e1e1e" stroke-width="2" fill="none"></path></g></g><mask></mask><g stroke-linecap="round"><g transform="translate(405.3561431648775 798.9541665047961) rotate(0 49.35816224081043 -49.033437489226145)"><path d="M0 0 C24.65 -24.49, 49.3 -48.98, 98.72 -98.07 M0 0 C36.04 -35.8, 72.08 -71.6, 98.72 -98.07" stroke="#1e1e1e" stroke-width="2" fill="none"></path></g></g><mask></mask><g stroke-linecap="round" transform="translate(600.9066947497745 893.6223316132385) rotate(0 49 49)"><path d="M0 0 C35.94 0, 71.88 0, 98 0 M0 0 C23.13 0, 46.27 0, 98 0 M98 0 C98 38.32, 98 76.64, 98 98 M98 0 C98 34.28, 98 68.55, 98 98 M98 98 C75.1 98, 52.19 98, 0 98 M98 98 C74.15 98, 50.31 98, 0 98 M0 98 C0 71.01, 0 44.02, 0 0 M0 98 C0 62.64, 0 27.28, 0 0" stroke="#1e1e1e" stroke-width="2" fill="none"></path></g><g stroke-linecap="round" transform="translate(797.6637513029295 894.1082185069287) rotate(0 49 49)"><path d="M0 0 C26.13 0, 52.27 0, 98 0 M0 0 C29.26 0, 58.51 0, 98 0 M98 0 C98 28.39, 98 56.78, 98 98 M98 0 C98 24.59, 98 49.19, 98 98 M98 98 C74.59 98, 51.18 98, 0 98 M98 98 C71.05 98, 44.1 98, 0 98 M0 98 C0 65.79, 0 33.59, 0 0 M0 98 C0 59.75, 0 21.5, 0 0" stroke="#1e1e1e" stroke-width="2" fill="none"></path></g><g stroke-linecap="round" transform="translate(797.6637513029295 1090.1082185069288) rotate(0 49 49)"><path d="M0 0 C25.47 0, 50.94 0, 98 0 M0 0 C36.77 0, 73.54 0, 98 0 M98 0 C98 37.6, 98 75.19, 98 98 M98 0 C98 36.45, 98 72.89, 98 98 M98 98 C60.67 98, 23.33 98, 0 98 M98 98 C67.82 98, 37.65 98, 0 98 M0 98 C0 76.56, 0 55.13, 0 0 M0 98 C0 62.74, 0 27.48, 0 0" stroke="#1e1e1e" stroke-width="2" fill="none"></path></g><g stroke-linecap="round" transform="translate(601.6637513029295 1090.1082185069288) rotate(0 49 49)"><path d="M0 0 C35.75 0, 71.5 0, 98 0 M0 0 C24.69 0, 49.37 0, 98 0 M98 0 C98 23.58, 98 47.17, 98 98 M98 0 C98 30.22, 98 60.44, 98 98 M98 98 C67.78 98, 37.56 98, 0 98 M98 98 C66.97 98, 35.95 98, 0 98 M0 98 C0 77.8, 0 57.6, 0 0 M0 98 C0 59.65, 0 21.31, 0 0" stroke="#1e1e1e" stroke-width="2" fill="none"></path></g><g stroke-linecap="round"><g transform="translate(601.3093434236628 991.3761373459228) rotate(0 0.16783069501252612 50.01354711373199)"><path d="M0 0 C0.1 29.89, 0.2 59.77, 0.34 100.03 M0 0 C0.09 28.11, 0.19 56.22, 0.34 100.03" stroke="#1e1e1e" stroke-width="2" fill="none"></path></g></g><mask></mask><g stroke-linecap="round"><g transform="translate(698.6713929407588 893.5053084258797) rotate(0 50.332336495563254 0.3247247515843128)"><path d="M0 0 C31.16 0.2, 62.32 0.4, 100.66 0.65 M0 0 C25.2 0.16, 50.4 0.33, 100.66 0.65" stroke="#1e1e1e" stroke-width="2" fill="none"></path></g></g><mask></mask><g stroke-linecap="round"><g transform="translate(896.1040419040007 990.2732843979949) rotate(0 -0.6494495031685119 50.65706124714757)"><path d="M0 0 C-0.27 20.9, -0.54 41.8, -1.3 101.31 M0 0 C-0.33 25.5, -0.65 50.99, -1.3 101.31" stroke="#1e1e1e" stroke-width="2" fill="none"></path></g></g><mask></mask><g stroke-linecap="round"><g transform="translate(696.7230444312531 1188.355382864405) rotate(0 63.646051310518715 0)"><path d="M0 0 C49.77 0, 99.54 0, 127.29 0 M0 0 C44.52 0, 89.05 0, 127.29 0" stroke="#1e1e1e" stroke-width="2" fill="none"></path></g></g><mask></mask><g stroke-linecap="round"><g transform="translate(699.3208424439276 991.5721834043321) rotate(0 50.007611743979055 50.007611743979)"><path d="M0 0 C28.97 28.97, 57.95 57.95, 100.02 100.02 M0 0 C25.1 25.1, 50.2 50.2, 100.02 100.02" stroke="#1e1e1e" stroke-width="2" fill="none"></path></g></g><mask></mask><g stroke-linecap="round"><g transform="translate(699.970291947096 1090.9379573891217) rotate(0 49.35816224081043 -49.03343748922617)"><path d="M0 0 C37.87 -37.62, 75.74 -75.25, 98.72 -98.07 M0 0 C36.71 -36.47, 73.42 -72.94, 98.72 -98.07" stroke="#1e1e1e" stroke-width="2" fill="none"></path></g></g><mask></mask><g stroke-linecap="round" transform="translate(895.89170919856 892.9853515214917) rotate(0 49 49)"><path d="M0 0 C23.58 0, 47.17 0, 98 0 M0 0 C30.22 0, 60.44 0, 98 0 M98 0 C98 30.22, 98 60.44, 98 98 M98 0 C98 31.03, 98 62.05, 98 98 M98 98 C77.8 98, 57.6 98, 0 98 M98 98 C59.65 98, 21.31 98, 0 98 M0 98 C0 59.17, 0 20.35, 0 0 M0 98 C0 69.71, 0 41.42, 0 0" stroke="#1e1e1e" stroke-width="2" fill="none"></path></g><g stroke-linecap="round" transform="translate(1092.6487657517146 893.4712384151818) rotate(0 49 49)"><path d="M0 0 C33.94 0, 67.88 0, 98 0 M0 0 C29.79 0, 59.57 0, 98 0 M98 0 C98 20.2, 98 40.4, 98 98 M98 0 C98 20.05, 98 40.11, 98 98 M98 98 C67.97 98, 37.93 98, 0 98 M98 98 C76.73 98, 55.46 98, 0 98 M0 98 C0 65.57, 0 33.15, 0 0 M0 98 C0 70.02, 0 42.05, 0 0" stroke="#1e1e1e" stroke-width="2" fill="none"></path></g><g stroke-linecap="round" transform="translate(1092.6487657517146 1089.471238415182) rotate(0 49 49)"><path d="M0 0 C32.85 0, 65.7 0, 98 0 M0 0 C31.25 0, 62.51 0, 98 0 M98 0 C98 22.24, 98 44.49, 98 98 M98 0 C98 26.8, 98 53.59, 98 98 M98 98 C66.45 98, 34.9 98, 0 98 M98 98 C73.65 98, 49.31 98, 0 98 M0 98 C0 74.13, 0 50.26, 0 0 M0 98 C0 62.96, 0 27.92, 0 0" stroke="#1e1e1e" stroke-width="2" fill="none"></path></g><g stroke-linecap="round" transform="translate(896.6487657517146 1089.471238415182) rotate(0 49 49)"><path d="M0 0 C21.77 0, 43.55 0, 98 0 M0 0 C29.28 0, 58.57 0, 98 0 M98 0 C98 31.63, 98 63.25, 98 98 M98 0 C98 28.52, 98 57.04, 98 98 M98 98 C71.3 98, 44.61 98, 0 98 M98 98 C74.02 98, 50.04 98, 0 98 M0 98 C0 63.34, 0 28.68, 0 0 M0 98 C0 76.04, 0 54.07, 0 0" stroke="#1e1e1e" stroke-width="2" fill="none"></path></g><g stroke-linecap="round"><g transform="translate(896.294357872448 990.7391572541759) rotate(0 0.16783069501252612 50.01354711373199)"><path d="M0 0 C0.08 23.38, 0.16 46.75, 0.34 100.03 M0 0 C0.08 24.34, 0.16 48.68, 0.34 100.03" stroke="#1e1e1e" stroke-width="2" fill="none"></path></g></g><mask></mask><g stroke-linecap="round"><g transform="translate(993.6564073895441 892.8683283341328) rotate(0 50.33233649556331 0.3247247515843128)"><path d="M0 0 C24.05 0.16, 48.1 0.31, 100.66 0.65 M0 0 C27.68 0.18, 55.36 0.36, 100.66 0.65" stroke="#1e1e1e" stroke-width="2" fill="none"></path></g></g><mask></mask><g stroke-linecap="round"><g transform="translate(1191.089056352786 989.636304306248) rotate(0 -0.6494495031685688 50.65706124714757)"><path d="M0 0 C-0.49 38.6, -0.99 77.19, -1.3 101.31 M0 0 C-0.4 31.2, -0.8 62.39, -1.3 101.31" stroke="#1e1e1e" stroke-width="2" fill="none"></path></g></g><mask></mask><g stroke-linecap="round"><g transform="translate(991.7080588800384 1187.7184027726582) rotate(0 63.646051310518715 0)"><path d="M0 0 C39.25 0, 78.51 0, 127.29 0 M0 0 C40.3 0, 80.6 0, 127.29 0" stroke="#1e1e1e" stroke-width="2" fill="none"></path></g></g><mask></mask><g stroke-linecap="round"><g transform="translate(994.3058568927125 990.9352033125853) rotate(0 50.007611743979 50.007611743979)"><path d="M0 0 C20.62 20.62, 41.23 41.23, 100.02 100.02 M0 0 C20.47 20.47, 40.93 40.93, 100.02 100.02" stroke="#1e1e1e" stroke-width="2" fill="none"></path></g></g><mask></mask><g stroke-linecap="round"><g transform="translate(994.9553063958812 1090.3009772973749) rotate(0 49.35816224081043 -49.03343748922617)"><path d="M0 0 C22.41 -22.26, 44.81 -44.52, 98.72 -98.07 M0 0 C26.99 -26.81, 53.98 -53.63, 98.72 -98.07" stroke="#1e1e1e" stroke-width="2" fill="none"></path></g></g><mask></mask><g stroke-linecap="round" transform="translate(602.2190048389616 598.7003901212128) rotate(0 49 49)"><path d="M0 0 C31.63 0, 63.25 0, 98 0 M0 0 C28.52 0, 57.04 0, 98 0 M98 0 C98 26.7, 98 53.39, 98 98 M98 0 C98 23.98, 98 47.96, 98 98 M98 98 C63.34 98, 28.68 98, 0 98 M98 98 C76.04 98, 54.07 98, 0 98 M0 98 C0 60.24, 0 22.48, 0 0 M0 98 C0 76.19, 0 54.38, 0 0" stroke="#1e1e1e" stroke-width="2" fill="none"></path></g><g stroke-linecap="round" transform="translate(798.9760613921167 599.1862770149029) rotate(0 49 49)"><path d="M0 0 C26.99 0, 53.98 0, 98 0 M0 0 C35.36 0, 70.72 0, 98 0 M98 0 C98 22.24, 98 44.49, 98 98 M98 0 C98 37.41, 98 74.82, 98 98 M98 98 C63.87 98, 29.74 98, 0 98 M98 98 C68.38 98, 38.77 98, 0 98 M0 98 C0 71.83, 0 45.67, 0 0 M0 98 C0 67.02, 0 36.05, 0 0" stroke="#1e1e1e" stroke-width="2" fill="none"></path></g><g stroke-linecap="round" transform="translate(798.9760613921167 795.1862770149029) rotate(0 49 49)"><path d="M0 0 C32.21 0, 64.41 0, 98 0 M0 0 C38.25 0, 76.5 0, 98 0 M98 0 C98 32.81, 98 65.62, 98 98 M98 0 C98 31.43, 98 62.87, 98 98 M98 98 C77.07 98, 56.14 98, 0 98 M98 98 C61.2 98, 24.4 98, 0 98 M0 98 C0 66.62, 0 35.25, 0 0 M0 98 C0 65.63, 0 33.27, 0 0" stroke="#1e1e1e" stroke-width="2" fill="none"></path></g><g stroke-linecap="round" transform="translate(602.9760613921167 795.1862770149029) rotate(0 49 49)"><path d="M0 0 C21.44 0, 42.87 0, 98 0 M0 0 C35.26 0, 70.52 0, 98 0 M98 0 C98 25.16, 98 50.31, 98 98 M98 0 C98 27.15, 98 54.29, 98 98 M98 98 C71.93 98, 45.86 98, 0 98 M98 98 C72.23 98, 46.46 98, 0 98 M0 98 C0 73.68, 0 49.36, 0 0 M0 98 C0 72.86, 0 47.71, 0 0" stroke="#1e1e1e" stroke-width="2" fill="none"></path></g><g stroke-linecap="round"><g transform="translate(602.6216535128499 696.454195853897) rotate(0 0.16783069501252612 50.01354711373199)"><path d="M0 0 C0.07 20.62, 0.14 41.24, 0.34 100.03 M0 0 C0.13 39.14, 0.26 78.28, 0.34 100.03" stroke="#1e1e1e" stroke-width="2" fill="none"></path></g></g><mask></mask><g stroke-linecap="round"><g transform="translate(699.9837030299459 598.5833669338539) rotate(0 50.332336495563254 0.3247247515842844)"><path d="M0 0 C30.85 0.2, 61.7 0.4, 100.66 0.65 M0 0 C21.85 0.14, 43.69 0.28, 100.66 0.65" stroke="#1e1e1e" stroke-width="2" fill="none"></path></g></g><mask></mask><g stroke-linecap="round"><g transform="translate(897.4163519931878 695.3513429059691) rotate(0 -0.6494495031685119 50.65706124714757)"><path d="M0 0 C-0.42 32.61, -0.84 65.23, -1.3 101.31 M0 0 C-0.32 25.17, -0.65 50.34, -1.3 101.31" stroke="#1e1e1e" stroke-width="2" fill="none"></path></g></g><mask></mask><g stroke-linecap="round"><g transform="translate(698.0353545204403 893.4334413723794) rotate(0 63.646051310518715 0)"><path d="M0 0 C34.68 0, 69.35 0, 127.29 0 M0 0 C31.15 0, 62.3 0, 127.29 0" stroke="#1e1e1e" stroke-width="2" fill="none"></path></g></g><mask></mask><g stroke-linecap="round"><g transform="translate(700.6331525331145 696.6502419123063) rotate(0 50.007611743979055 50.007611743979)"><path d="M0 0 C22.7 22.7, 45.4 45.4, 100.02 100.02 M0 0 C38.18 38.18, 76.36 76.36, 100.02 100.02" stroke="#1e1e1e" stroke-width="2" fill="none"></path></g></g><mask></mask><g stroke-linecap="round"><g transform="translate(701.2826020362832 796.0160158970958) rotate(0 49.35816224081043 -49.033437489226145)"><path d="M0 0 C33.05 -32.83, 66.1 -65.67, 98.72 -98.07 M0 0 C31.66 -31.46, 63.33 -62.91, 98.72 -98.07" stroke="#1e1e1e" stroke-width="2" fill="none"></path></g></g><mask></mask><g stroke-linecap="round" transform="translate(895.4835378381056 598.9044758014396) rotate(0 49 49)"><path d="M0 0 C25.16 0, 50.31 0, 98 0 M0 0 C27.15 0, 54.29 0, 98 0 M98 0 C98 26.07, 98 52.14, 98 98 M98 0 C98 25.77, 98 51.54, 98 98 M98 98 C73.68 98, 49.36 98, 0 98 M98 98 C72.86 98, 47.71 98, 0 98 M0 98 C0 73.14, 0 48.27, 0 0 M0 98 C0 77.1, 0 56.2, 0 0" stroke="#1e1e1e" stroke-width="2" fill="none"></path></g><g stroke-linecap="round" transform="translate(1092.2405943912606 599.3903626951297) rotate(0 49 49)"><path d="M0 0 C38.83 0, 77.65 0, 98 0 M0 0 C28.29 0, 56.58 0, 98 0 M98 0 C98 37.59, 98 75.17, 98 98 M98 0 C98 28.2, 98 56.41, 98 98 M98 98 C65.2 98, 32.41 98, 0 98 M98 98 C71.36 98, 44.72 98, 0 98 M0 98 C0 68.95, 0 39.91, 0 0 M0 98 C0 77.48, 0 56.96, 0 0" stroke="#1e1e1e" stroke-width="2" fill="none"></path></g><g stroke-linecap="round" transform="translate(1092.2405943912606 795.3903626951297) rotate(0 49 49)"><path d="M0 0 C32.43 0, 64.85 0, 98 0 M0 0 C27.98 0, 55.95 0, 98 0 M98 0 C98 23.21, 98 46.43, 98 98 M98 0 C98 33.9, 98 67.79, 98 98 M98 98 C71.07 98, 44.15 98, 0 98 M98 98 C77.71 98, 57.42 98, 0 98 M0 98 C0 77.77, 0 57.55, 0 0 M0 98 C0 75.29, 0 52.57, 0 0" stroke="#1e1e1e" stroke-width="2" fill="none"></path></g><g stroke-linecap="round" transform="translate(896.2405943912606 795.3903626951297) rotate(0 49 49)"><path d="M0 0 C23.87 0, 47.74 0, 98 0 M0 0 C35.04 0, 70.08 0, 98 0 M98 0 C98 31.44, 98 62.87, 98 98 M98 0 C98 36.73, 98 73.47, 98 98 M98 98 C77.77 98, 57.55 98, 0 98 M98 98 C76.84 98, 55.69 98, 0 98 M0 98 C0 68.99, 0 39.98, 0 0 M0 98 C0 76.53, 0 55.05, 0 0" stroke="#1e1e1e" stroke-width="2" fill="none"></path></g><g stroke-linecap="round"><g transform="translate(895.8861865119939 696.6582815341238) rotate(0 0.16783069501252612 50.01354711373199)"><path d="M0 0 C0.12 35.38, 0.24 70.75, 0.34 100.03 M0 0 C0.08 22.42, 0.15 44.83, 0.34 100.03" stroke="#1e1e1e" stroke-width="2" fill="none"></path></g></g><mask></mask><g stroke-linecap="round"><g transform="translate(993.2482360290901 598.7874526140807) rotate(0 50.332336495563254 0.3247247515842844)"><path d="M0 0 C35.06 0.23, 70.12 0.45, 100.66 0.65 M0 0 C30.42 0.2, 60.84 0.39, 100.66 0.65" stroke="#1e1e1e" stroke-width="2" fill="none"></path></g></g><mask></mask><g stroke-linecap="round"><g transform="translate(1190.6808849923318 695.555428586196) rotate(0 -0.6494495031685688 50.65706124714757)"><path d="M0 0 C-0.28 21.64, -0.55 43.28, -1.3 101.31 M0 0 C-0.49 38.04, -0.98 76.08, -1.3 101.31" stroke="#1e1e1e" stroke-width="2" fill="none"></path></g></g><mask></mask><g stroke-linecap="round"><g transform="translate(991.2998875195843 893.6375270526063) rotate(0 63.646051310518715 0)"><path d="M0 0 C33.86 0, 67.72 0, 127.29 0 M0 0 C33.47 0, 66.95 0, 127.29 0" stroke="#1e1e1e" stroke-width="2" fill="none"></path></g></g><mask></mask><g stroke-linecap="round"><g transform="translate(993.8976855322585 696.8543275925332) rotate(0 50.007611743979055 50.007611743979)"><path d="M0 0 C38.36 38.36, 76.72 76.72, 100.02 100.02 M0 0 C28.78 28.78, 57.57 57.57, 100.02 100.02" stroke="#1e1e1e" stroke-width="2" fill="none"></path></g></g><mask></mask><g stroke-linecap="round"><g transform="translate(994.5471350354271 796.2201015773227) rotate(0 49.35816224081043 -49.033437489226145)"><path d="M0 0 C23.38 -23.23, 46.77 -46.46, 98.72 -98.07 M0 0 C34.14 -33.92, 68.29 -67.84, 98.72 -98.07" stroke="#1e1e1e" stroke-width="2" fill="none"></path></g></g><mask></mask></svg>